<svg width="73" height="73" viewBox="0 0 73 73" fill="none" xmlns="http://www.w3.org/2000/svg">
<path d="M40.984 5.87263C40.6611 5.78418 40.3348 5.70418 40.0052 5.63291C39.4897 5.5215 39.098 5.10024 39.0091 4.58024L38.8029 3.37334C38.5742 2.03488 37.414 1.05615 36.0562 1.05615C34.6983 1.05615 33.5381 2.03488 33.3094 3.37334L33.1032 4.58024C33.0143 5.1001 32.6226 5.52136 32.1071 5.63291C29.8824 6.1139 27.8036 6.99235 25.9502 8.19066C25.5118 8.47418 24.9431 8.45517 24.517 8.15348L23.5029 7.43531C22.3948 6.65052 20.8824 6.77883 19.9221 7.73897C18.9619 8.69911 18.8336 10.2116 19.6184 11.3198L20.3366 12.3339C20.6383 12.76 20.6573 13.3287 20.3738 13.7671C19.1755 15.6207 18.2971 17.6993 17.816 19.924C17.7046 20.4395 17.2833 20.8312 16.7633 20.9201L15.5564 21.1263C14.218 21.355 13.2393 22.5152 13.2393 23.8731C13.2393 25.2309 14.218 26.3911 15.5564 26.6198L16.7633 26.826C17.2832 26.9149 17.7045 27.3066 17.816 27.8221C18.297 30.0469 19.1755 32.1254 20.3738 33.979C20.6573 34.4174 20.6383 34.9862 20.3366 35.4122L19.6186 36.4263C18.8338 37.5345 18.9621 39.0469 19.9222 40.0071C20.8824 40.9673 22.3949 41.0956 23.5031 40.3108L24.5171 39.5926C24.9432 39.2909 25.5119 39.2719 25.9504 39.5554C27.8039 40.7538 29.8825 41.6321 32.1073 42.1132C32.6228 42.2246 33.0145 42.6459 33.1033 43.1659L33.3095 44.3728C33.5383 45.7112 34.6984 46.69 36.0563 46.69C37.4142 46.69 38.5743 45.7112 38.8031 44.3728L39.0093 43.1659C39.0981 42.646 39.4898 42.2247 40.0053 42.1132C42.2301 41.6322 44.3088 40.7538 46.1622 39.5554C46.6007 39.2719 47.1694 39.2909 47.5955 39.5926L48.6095 40.3108C49.7177 41.0956 51.2301 40.9673 52.1904 40.0071C53.1505 39.047 53.2788 37.5345 52.494 36.4263L51.7759 35.4122C51.4742 34.9862 51.4552 34.4174 51.7387 33.979C52.937 32.1254 53.8153 30.0469 54.2964 27.8221C54.4079 27.3066 54.8291 26.9149 55.3491 26.826L56.556 26.6198C57.8943 26.3911 58.8731 25.2309 58.8731 23.8731C58.8731 22.5152 57.8943 21.355 56.5559 21.1263L55.349 20.9201C54.8291 20.8312 54.4079 20.4395 54.2963 19.924C53.8152 17.6993 52.9369 15.6205 51.7386 13.7671C51.455 13.3287 51.474 12.76 51.7757 12.3339L52.4939 11.3198C53.2787 10.2116 53.1504 8.69925 52.1902 7.73897C51.2301 6.77883 49.7176 6.65052 48.6094 7.43531L47.5953 8.15348C47.1693 8.45517 46.6005 8.47418 46.1621 8.19066C45.9511 8.05432 45.7371 7.92193 45.5205 7.79404" stroke="#A65CC1" stroke-width="2.11268" stroke-miterlimit="10" stroke-linecap="round" stroke-linejoin="round"/>
<path d="M1.05615 61.901V53.8729C1.05615 53.2506 1.56066 52.7461 2.18291 52.7461H19.6477C20.27 52.7461 20.7745 53.2506 20.7745 53.8729V69.9292C20.7745 70.5514 20.27 71.056 19.6477 71.056H2.18291C1.56066 71.056 1.05615 70.5514 1.05615 69.9292V66.7716" stroke="#A65CC1" stroke-width="2.11268" stroke-miterlimit="10" stroke-linecap="round" stroke-linejoin="round"/>
<path d="M5.98584 57.394H11.6196" stroke="#A65CC1" stroke-width="2.11268" stroke-miterlimit="10" stroke-linecap="round" stroke-linejoin="round"/>
<path d="M5.98584 61.9014H15.845" stroke="#A65CC1" stroke-width="2.11268" stroke-miterlimit="10" stroke-linecap="round" stroke-linejoin="round"/>
<path d="M5.98584 66.4082H15.845" stroke="#A65CC1" stroke-width="2.11268" stroke-miterlimit="10" stroke-linecap="round" stroke-linejoin="round"/>
<path d="M44.7883 71.056H27.3235C26.7013 71.056 26.1968 70.5514 26.1968 69.9292V53.8729C26.1968 53.2506 26.7013 52.7461 27.3235 52.7461H44.7883C45.4106 52.7461 45.9151 53.2506 45.9151 53.8729V69.9292C45.9151 70.5514 45.4106 71.056 44.7883 71.056Z" stroke="#A65CC1" stroke-width="2.11268" stroke-miterlimit="10" stroke-linecap="round" stroke-linejoin="round"/>
<path d="M31.1265 57.394H36.7603" stroke="#A65CC1" stroke-width="2.11268" stroke-miterlimit="10" stroke-linecap="round" stroke-linejoin="round"/>
<path d="M31.1265 61.9014H40.9856" stroke="#A65CC1" stroke-width="2.11268" stroke-miterlimit="10" stroke-linecap="round" stroke-linejoin="round"/>
<path d="M31.1265 66.4082H40.9856" stroke="#A65CC1" stroke-width="2.11268" stroke-miterlimit="10" stroke-linecap="round" stroke-linejoin="round"/>
<path d="M69.9294 71.056H52.4647C51.8424 71.056 51.3379 70.5514 51.3379 69.9292V53.8729C51.3379 53.2506 51.8424 52.7461 52.4647 52.7461H69.9294C70.5517 52.7461 71.0562 53.2506 71.0562 53.8729V69.9292C71.0562 70.5514 70.5517 71.056 69.9294 71.056Z" stroke="#A65CC1" stroke-width="2.11268" stroke-miterlimit="10" stroke-linecap="round" stroke-linejoin="round"/>
<path d="M56.2676 57.394H61.9014" stroke="#A65CC1" stroke-width="2.11268" stroke-miterlimit="10" stroke-linecap="round" stroke-linejoin="round"/>
<path d="M56.2676 61.9014H66.1267" stroke="#A65CC1" stroke-width="2.11268" stroke-miterlimit="10" stroke-linecap="round" stroke-linejoin="round"/>
<path d="M56.2676 66.4082H66.1267" stroke="#A65CC1" stroke-width="2.11268" stroke-miterlimit="10" stroke-linecap="round" stroke-linejoin="round"/>
<path d="M36.0562 38.3098C44.0294 38.3098 50.4929 31.8463 50.4929 23.8731C50.4929 15.9 44.0294 9.43652 36.0562 9.43652C28.0831 9.43652 21.6196 15.9 21.6196 23.8731C21.6196 31.8463 28.0831 38.3098 36.0562 38.3098Z" stroke="#A65CC1" stroke-width="2.11268" stroke-miterlimit="10" stroke-linecap="round" stroke-linejoin="round"/>
<path d="M36.0562 46.8779V52.3005" stroke="#A65CC1" stroke-width="2.11268" stroke-miterlimit="10" stroke-linecap="round" stroke-linejoin="round"/>
<path d="M19.4067 32.6431H10.9155V52.7463" stroke="#A65CC1" stroke-width="2.11268" stroke-miterlimit="10" stroke-linecap="round" stroke-linejoin="round"/>
<path d="M61.1972 52.7463V32.6431H52.77" stroke="#A65CC1" stroke-width="2.11268" stroke-miterlimit="10" stroke-linecap="round" stroke-linejoin="round"/>
</svg>
