<?xml version="1.0" encoding="UTF-8"?>
<svg id="Layer_1" xmlns="http://www.w3.org/2000/svg" version="1.1" viewBox="0 0 505.98 170.66">
  <!-- Generator: Adobe Illustrator 30.0.0, SVG Export Plug-In . SVG Version: 2.1.1 Build 123)  -->
  <defs>
    <style>
      .st0 {
        fill: #fff;
      }

      .st1 {
        fill: #0480c4;
      }
    </style>
  </defs>
  <polygon class="st0" points="0 59.49 54.32 59.49 69.1 153.36 53.45 153.36 0 59.49"/>
  <polygon class="st0" points="156.01 59.49 101.69 59.49 86.91 153.36 102.56 153.36 156.01 59.49"/>
  <path class="st1" d="M3.91,33.41h51.28l22.16,22.16,21.51-21.51h51.5L88.44,2.12s-11.73-4.78-21.51,0S3.91,33.41,3.91,33.41Z"/>
  <polygon class="st0" points="55.86 157.19 99.84 157.19 92.06 170.66 63.6 170.66 55.86 157.19"/>
  <g>
    <path class="st0" d="M191.68,106.42v-34.09h-13.45v-7.92h36.62v7.92h-13.45v34.09h-9.72Z"/>
    <path class="st0" d="M220.07,106.42v-42.02h31.75v7.8h-22.09v26.41h22.87v7.8h-32.53ZM229.02,88.9v-7.56h20.23v7.56h-20.23Z"/>
    <path class="st0" d="M280.46,107.14c-3.24,0-6.25-.53-9.03-1.59-2.78-1.06-5.19-2.57-7.23-4.53-2.04-1.96-3.63-4.26-4.77-6.9-1.14-2.64-1.71-5.54-1.71-8.7s.57-6.06,1.71-8.7c1.14-2.64,2.74-4.94,4.8-6.9,2.06-1.96,4.47-3.47,7.23-4.53,2.76-1.06,5.78-1.59,9.06-1.59,3.64,0,6.93.63,9.87,1.89s5.41,3.11,7.41,5.55l-6.24,5.76c-1.44-1.64-3.04-2.87-4.8-3.69-1.76-.82-3.68-1.23-5.76-1.23-1.96,0-3.76.32-5.4.96-1.64.64-3.06,1.56-4.26,2.76s-2.13,2.62-2.79,4.26c-.66,1.64-.99,3.46-.99,5.46s.33,3.82.99,5.46c.66,1.64,1.59,3.06,2.79,4.26,1.2,1.2,2.62,2.12,4.26,2.76,1.64.64,3.44.96,5.4.96,2.08,0,4-.41,5.76-1.23,1.76-.82,3.36-2.07,4.8-3.75l6.24,5.76c-2,2.44-4.47,4.3-7.41,5.58s-6.25,1.92-9.93,1.92Z"/>
    <path class="st0" d="M303.81,106.42v-42.02h9.72v42.02h-9.72ZM312.81,89.19v-8.22h20.53v8.22h-20.53ZM332.62,106.42v-42.02h9.72v42.02h-9.72Z"/>
    <path class="st0" d="M364.02,106.42l-18.13-42.02h10.5l15.85,37.22h-6.18l16.09-37.22h9.66l-18.19,42.02h-9.6Z"/>
    <path class="st0" d="M395.29,106.42v-42.02h31.75v7.8h-22.09v26.41h22.87v7.8h-32.53ZM404.23,88.9v-7.56h20.23v7.56h-20.23Z"/>
    <path class="st0" d="M449.37,107.14c-3.36,0-6.58-.45-9.66-1.35-3.08-.9-5.56-2.07-7.44-3.51l3.3-7.32c1.8,1.28,3.93,2.33,6.39,3.15,2.46.82,4.95,1.23,7.47,1.23,1.92,0,3.47-.19,4.65-.57,1.18-.38,2.05-.91,2.61-1.59.56-.68.84-1.46.84-2.34,0-1.12-.44-2.01-1.32-2.67-.88-.66-2.04-1.2-3.48-1.62s-3.03-.82-4.77-1.2c-1.74-.38-3.48-.85-5.22-1.41-1.74-.56-3.33-1.28-4.77-2.16-1.44-.88-2.61-2.04-3.51-3.48-.9-1.44-1.35-3.28-1.35-5.52,0-2.4.65-4.59,1.95-6.57,1.3-1.98,3.26-3.56,5.88-4.74,2.62-1.18,5.91-1.77,9.87-1.77,2.64,0,5.24.31,7.8.93,2.56.62,4.82,1.55,6.78,2.79l-3,7.38c-1.96-1.12-3.92-1.95-5.88-2.49-1.96-.54-3.88-.81-5.76-.81s-3.42.22-4.62.66c-1.2.44-2.06,1.01-2.58,1.71-.52.7-.78,1.51-.78,2.43,0,1.08.44,1.95,1.32,2.61.88.66,2.04,1.19,3.48,1.59s3.03.8,4.77,1.2c1.74.4,3.48.86,5.22,1.38,1.74.52,3.33,1.22,4.77,2.1,1.44.88,2.61,2.04,3.51,3.48s1.35,3.26,1.35,5.46c0,2.36-.66,4.52-1.98,6.48-1.32,1.96-3.29,3.54-5.91,4.74-2.62,1.2-5.93,1.8-9.93,1.8Z"/>
    <path class="st0" d="M481.96,106.42v-34.09h-13.45v-7.92h36.62v7.92h-13.45v34.09h-9.72Z"/>
  </g>
  <g>
    <path class="st1" d="M244.72,145.29c-1.79,0-3.43-.29-4.93-.86s-2.8-1.38-3.91-2.44c-1.11-1.06-1.97-2.29-2.59-3.72s-.92-2.98-.92-4.69.31-3.26.92-4.69,1.48-2.66,2.6-3.72,2.43-1.87,3.94-2.44c1.51-.57,3.17-.86,4.98-.86,2,0,3.81.33,5.41,1,1.6.67,2.96,1.64,4.06,2.91l-3.36,3.1c-.82-.86-1.71-1.5-2.68-1.92-.97-.42-2.03-.63-3.17-.63s-2.1.17-3.01.52c-.91.34-1.69.84-2.34,1.49s-1.16,1.41-1.52,2.29c-.36.88-.53,1.86-.53,2.94s.18,2.03.53,2.91.86,1.65,1.52,2.31,1.43,1.16,2.33,1.5c.89.34,1.88.52,2.96.52s2.04-.17,3.02-.5,1.93-.9,2.86-1.7l2.97,3.78c-1.23.93-2.66,1.64-4.28,2.13s-3.25.74-4.86.74ZM253.87,142.42l-4.78-.68v-8.5h4.78v9.18Z"/>
    <path class="st1" d="M274.88,144.9v-22.62h5.24v18.36h11.34v4.27h-16.58Z"/>
    <path class="st1" d="M321.16,145.29c-1.79,0-3.44-.29-4.96-.87-1.52-.58-2.83-1.4-3.94-2.46-1.11-1.06-1.97-2.29-2.59-3.72s-.92-2.97-.92-4.65.31-3.23.92-4.65,1.48-2.66,2.6-3.72c1.12-1.06,2.43-1.88,3.94-2.46,1.51-.58,3.15-.87,4.91-.87s3.43.29,4.93.87c1.5.58,2.8,1.4,3.91,2.46,1.11,1.06,1.98,2.29,2.6,3.7.62,1.41.94,2.97.94,4.67s-.31,3.24-.94,4.67c-.63,1.43-1.49,2.67-2.6,3.72-1.11,1.04-2.41,1.86-3.91,2.44-1.5.58-3.13.87-4.9.87ZM321.13,140.83c1.01,0,1.94-.17,2.8-.52.85-.34,1.6-.84,2.25-1.49s1.15-1.41,1.5-2.29c.36-.88.53-1.86.53-2.94s-.18-2.06-.53-2.94c-.36-.88-.85-1.65-1.49-2.29s-1.38-1.14-2.25-1.49c-.86-.34-1.8-.52-2.81-.52s-1.94.17-2.8.52-1.6.84-2.25,1.49-1.15,1.41-1.5,2.29c-.36.88-.53,1.86-.53,2.94s.18,2.03.53,2.92c.36.89.85,1.67,1.49,2.31.63.65,1.38,1.14,2.25,1.49.86.34,1.8.52,2.81.52Z"/>
    <path class="st1" d="M353.61,144.9v-22.62h11.05c2.84,0,4.98.54,6.42,1.62,1.43,1.08,2.15,2.5,2.15,4.27,0,1.18-.29,2.21-.87,3.09-.58.87-1.38,1.55-2.39,2.02-1.01.47-2.18.71-3.49.71l.61-1.33c1.42,0,2.68.23,3.78.7s1.96,1.15,2.57,2.05c.61.91.92,2.02.92,3.33,0,1.94-.76,3.45-2.29,4.54-1.53,1.09-3.78,1.63-6.76,1.63h-11.7ZM358.82,140.96h6.11c1.36,0,2.39-.22,3.09-.66s1.05-1.15,1.05-2.12-.35-1.65-1.05-2.12c-.7-.46-1.73-.7-3.09-.7h-6.5v-3.81h5.59c1.27,0,2.25-.22,2.93-.66.68-.44,1.02-1.11,1.02-2.02s-.34-1.55-1.02-1.99c-.68-.44-1.65-.66-2.93-.66h-5.2v14.74Z"/>
    <path class="st1" d="M391.53,144.9l10.08-22.62h5.17l10.12,22.62h-5.49l-8.27-19.97h2.07l-8.31,19.97h-5.37ZM396.57,140.06l1.39-3.98h11.64l1.42,3.98h-14.45Z"/>
    <path class="st1" d="M435.42,144.9v-22.62h5.24v18.36h11.34v4.27h-16.58Z"/>
  </g>
</svg>